<svg id="dog" xmlns="http://www.w3.org/2000/svg" viewBox="0 0 65.59 65.59"><defs><style>.cls-1{fill:#f9f8f4;}.cls-2{fill:none;stroke:#000;stroke-miterlimit:10;}

#face {
		display: block;
	}

	@media screen and (max-width: 150px) {

		#face {
			display: none;
		}

	}



</style></defs><title>dog</title><circle id="body" class="cls-1" cx="32.8" cy="32.8" r="32.8"/><g id="ear"><path d="M213,50.9s-2.76-4.92-6-3.36c-7.16,3.43-19.13,13.75-9.62,20.4C211.19,77.62,213,50.9,213,50.9Z" transform="translate(-189.77 -34.4)"/><path d="M232.16,50.9s2.76-4.92,6-3.36c7.16,3.43,19.13,13.75,9.62,20.4C234,77.62,232.16,50.9,232.16,50.9Z" transform="translate(-189.77 -34.4)"/></g><g id="face"><g id="eye"><circle cx="21.36" cy="35.8" r="1.88"/><circle cx="45.23" cy="35.8" r="1.88"/></g><g id="nose"><circle cx="32.8" cy="46.36" r="3.23"/><path class="cls-2" d="M222.35,81.42s-1.82,10.7-7.27,2.22" transform="translate(-189.77 -34.4)"/><path class="cls-2" d="M222.48,81.59s3.9,10.13,7.57.74" transform="translate(-189.77 -34.4)"/></g></g></svg>