<svg id="lion" xmlns="http://www.w3.org/2000/svg" viewBox="0 0 65.59 65.59"><defs><style>.cls-1{fill:#feedad;}.cls-2{fill:#8b5f3d;}.cls-3{fill:none;stroke:#000;stroke-miterlimit:10;}


#face {
		display: block;
	}

	@media screen and (max-width: 150px) {

		#face {
			display: none;
		}

	}


</style></defs><title>lion</title><circle id="body" class="cls-1" cx="32.8" cy="32.8" r="32.8"/><path id="hair" class="cls-2" d="M361.69,57.16c.31,0,4.92,1.24,4.77,7.43-.18,7.45-7,6.7-7,6.7s6,3,3.06,7.54c-4.85,7.53-11.62,1.85-11.62,1.85s-.14,2.86-4.7,4.61-9.67-3.91-9.67-3.91S334,86.25,327.23,85s-5.79-7.87-5.79-7.87-4.87,1.55-5.6-2.77A5.57,5.57,0,0,1,318,69.14s-3.83-.57-5-3.19c-2.66-6.08,3.43-7.8,3.43-7.8s-6.07-1.09-4.62-7c1.4-5.75,7.23-4,7.61-3.84-.35-.13-5.55-2.26-.85-8.87,4.86-6.83,11.07.19,11.07.19s0-6.46,4.57-6.79,5,5.11,5,5.11,2.39-4.91,6.81-4.08c3.37.63,2.72,5.66,2.72,5.66s3.63-5.58,8.46-1.51c6.52,5.5.86,10.56.65,10.74.18-.1,5.18-1.31,7,3.18S362,57.11,361.69,57.16Z" transform="translate(-306.46 -25.92)"/><g id="face"><g id="eye"><circle cx="21.65" cy="30.42" r="1.87"/><circle cx="41.52" cy="30.42" r="1.87"/></g><circle cx="32.8" cy="39.77" r="3.23"/><path class="cls-3" d="M339,66.35s-1.82,10.7-7.27,2.22" transform="translate(-306.46 -25.92)"/><path class="cls-3" d="M339.18,66.52s3.9,10.13,7.57.74" transform="translate(-306.46 -25.92)"/></g></svg>