<svg id="mouse" xmlns="http://www.w3.org/2000/svg" viewBox="0 0 65.59 65.59"><defs><style>.cls-1{fill:#dddbd7;}.cls-2{fill:#565453;}.cls-3{fill:none;stroke:#000;stroke-miterlimit:10;}.cls-4{fill:#444141;}


#face {
		display: block;
	}

	@media screen and (max-width: 150px) {

		#face {
			display: none;
		}

	}


</style></defs><title>mouse</title><circle id="body" class="cls-1" cx="32.8" cy="32.8" r="32.8"/><g id="ear"><circle class="cls-2" cx="19.45" cy="13.7" r="8.19"/><circle class="cls-2" cx="46.36" cy="13.38" r="7.97"/></g><g id="face"><g id="eye"><circle cx="22.86" cy="26.05" r="1.87"/><circle cx="42.73" cy="26.05" r="1.87"/></g><g id="nose"><circle cx="32.8" cy="41.49" r="3.23"/><path class="cls-3" d="M269.46,169.09s-1.82,10.7-7.27,2.22" transform="translate(-236.88 -126.93)"/><path class="cls-3" d="M269.59,169.26s3.9,10.13,7.57.74" transform="translate(-236.88 -126.93)"/></g></g><g id="beard"><path class="cls-4" d="M281.29,165a52,52,0,0,1,8.56.56,39.06,39.06,0,0,1,8.4,2,.53.53,0,0,1-.25,1h0l-4.2-.48-4.21-.53a84.81,84.81,0,0,1-8.39-1.49.53.53,0,0,1-.4-.64A.54.54,0,0,1,281.29,165Z" transform="translate(-236.88 -126.93)"/><path class="cls-4" d="M280.88,166.34a39.93,39.93,0,0,1,7.61,1.33c1.24.34,2.48.71,3.7,1.17a16.81,16.81,0,0,1,3.56,1.74.53.53,0,0,1-.46.95h0c-1.16-.37-2.39-.67-3.61-1L288,169.6a75.25,75.25,0,0,1-7.32-2.22h0a.53.53,0,0,1,.22-1Z" transform="translate(-236.88 -126.93)"/><path class="cls-4" d="M257.16,166.08a84.82,84.82,0,0,1-8.39,1.49l-4.21.53-4.2.48h0a.53.53,0,0,1-.25-1,39.06,39.06,0,0,1,8.4-2,52,52,0,0,1,8.56-.56.53.53,0,0,1,.52.55A.54.54,0,0,1,257.16,166.08Z" transform="translate(-236.88 -126.93)"/><path class="cls-4" d="M257.68,167.38a75.25,75.25,0,0,1-7.32,2.22l-3.68.94c-1.22.32-2.45.61-3.61,1h0a.53.53,0,0,1-.46-.95,16.81,16.81,0,0,1,3.56-1.74c1.22-.46,2.46-.84,3.7-1.17a39.93,39.93,0,0,1,7.61-1.33.53.53,0,0,1,.22,1Z" transform="translate(-236.88 -126.93)"/></g></svg>