<svg id="rabbit" xmlns="http://www.w3.org/2000/svg" viewBox="0 0 65.59 65.59"><defs><style>.cls-1{fill:#f2d2cd;}.cls-2{fill:#e3a9a3;}.cls-3{fill:none;stroke:#000;stroke-miterlimit:10;}.cls-4{fill:#444141;}




#face {
		display: block;
	}

	@media screen and (max-width: 150px) {

		#face {
			display: none;
		}

	}



</style></defs><title>rabbit</title><circle id="body" class="cls-1" cx="32.8" cy="32.8" r="32.8"/><g id="ear"><path class="cls-2" d="M251.32,279.53c1.21,8-.27,14.89-1.92,15.14s-5.36-5.84-6.57-13.86.75-11.9,2.4-12.15S250.11,271.51,251.32,279.53Z" transform="translate(-220.6 -264.84)"/><path class="cls-2" d="M265.23,280.6c-.84,8.06-4,14.35-5.65,14.17s-3.73-7-2.89-15.06,3.71-11.33,5.37-11.16S266.07,272.54,265.23,280.6Z" transform="translate(-220.6 -264.84)"/></g><g id="face"><g id="eye"><circle cx="22.86" cy="31.94" r="1.87"/><circle cx="42.73" cy="31.94" r="1.87"/></g><g id="nose"><circle cx="32.8" cy="47.38" r="3.23"/><path class="cls-3" d="M253.18,312.88s-1.82,10.7-7.27,2.22" transform="translate(-220.6 -264.84)"/><path class="cls-3" d="M253.32,313.05s3.9,10.13,7.57.74" transform="translate(-220.6 -264.84)"/></g></g><g id="beard"><path class="cls-4" d="M264.38,303.27a45.53,45.53,0,0,1,8,.49,34.91,34.91,0,0,1,7.8,1.87.53.53,0,0,1-.25,1h0l-3.9-.42-3.91-.49a71.5,71.5,0,0,1-7.79-1.41.53.53,0,0,1-.39-.64A.54.54,0,0,1,264.38,303.27Z" transform="translate(-220.6 -264.84)"/><path class="cls-4" d="M264,304.49a35.08,35.08,0,0,1,7.08,1.2c1.16.31,2.31.67,3.44,1.1a15,15,0,0,1,3.3,1.65.53.53,0,0,1-.45.95h0c-1.09-.32-2.22-.6-3.35-.89l-3.41-.87a62.87,62.87,0,0,1-6.78-2.1h0a.53.53,0,0,1,.22-1Z" transform="translate(-220.6 -264.84)"/><path class="cls-4" d="M242,304.32a71.5,71.5,0,0,1-7.79,1.41l-3.91.49-3.9.42h0a.53.53,0,0,1-.25-1,34.91,34.91,0,0,1,7.8-1.87,45.53,45.53,0,0,1,8-.49.53.53,0,0,1,.51.55A.54.54,0,0,1,242,304.32Z" transform="translate(-220.6 -264.84)"/><path class="cls-4" d="M242.46,305.52a62.87,62.87,0,0,1-6.78,2.1l-3.41.87c-1.13.28-2.27.56-3.35.89h0a.53.53,0,0,1-.46-.95,15,15,0,0,1,3.3-1.65c1.13-.43,2.28-.78,3.44-1.1a35.08,35.08,0,0,1,7.08-1.2.53.53,0,0,1,.22,1Z" transform="translate(-220.6 -264.84)"/></g></svg>